<?xml version="1.0" encoding="UTF-8" standalone="no"?>
<!DOCTYPE svg PUBLIC "-//W3C//DTD SVG 1.1//EN"
 "http://www.w3.org/Graphics/SVG/1.1/DTD/svg11.dtd">
<!-- Generated by graphviz version 2.38.0 (20140413.2041)
 -->
<!-- Title: controllers_diagram Pages: 1 -->
<svg width="1161pt" height="658pt"
 viewBox="0.00 0.00 1161.38 657.83" xmlns="http://www.w3.org/2000/svg" xmlns:xlink="http://www.w3.org/1999/xlink">
<g id="graph0" class="graph" transform="scale(1 1) rotate(0) translate(315.799 303.312)">
<title>controllers_diagram</title>
<polygon fill="white" stroke="none" points="-315.799,354.519 -315.799,-303.312 845.585,-303.312 845.585,354.519 -315.799,354.519"/>
<!-- _diagram_info -->
<g id="node1" class="node"><title>_diagram_info</title>
<text text-anchor="start" x="320.312" y="-59.1" font-family="Times,serif" font-size="13.00">Controllers diagram</text>
<text text-anchor="start" x="320.312" y="-46.1" font-family="Times,serif" font-size="13.00">Date: Jul 30 2014 &#45; 20:33</text>
<text text-anchor="start" x="320.312" y="-33.1" font-family="Times,serif" font-size="13.00">Migration version: 20140724143446</text>
<text text-anchor="start" x="320.312" y="-20.1" font-family="Times,serif" font-size="13.00">Generated by RailRoady 1.1.1</text>
<text text-anchor="start" x="320.312" y="-7.1" font-family="Times,serif" font-size="13.00">http://railroady.prestonlee.com</text>
</g>
<!-- AnalysisController -->
<g id="node2" class="node"><title>AnalysisController</title>
<path fill="none" stroke="black" d="M-299.799,12.2679C-299.799,12.2679 -139.854,12.2679 -139.854,12.2679 -133.854,12.2679 -127.854,6.26792 -127.854,0.267917 -127.854,0.267917 -127.854,-135.732 -127.854,-135.732 -127.854,-141.732 -133.854,-147.732 -139.854,-147.732 -139.854,-147.732 -299.799,-147.732 -299.799,-147.732 -305.799,-147.732 -311.799,-141.732 -311.799,-135.732 -311.799,-135.732 -311.799,0.267917 -311.799,0.267917 -311.799,6.26792 -305.799,12.2679 -299.799,12.2679"/>
<text text-anchor="middle" x="-219.827" y="-132.532" font-family="Times,serif" font-size="14.00">AnalysisController</text>
<polyline fill="none" stroke="black" points="-311.799,-125.732 -127.854,-125.732 "/>
<text text-anchor="start" x="-303.799" y="-110.532" font-family="Times,serif" font-size="14.00">current_user_smokes_graphic</text>
<text text-anchor="start" x="-303.799" y="-96.5321" font-family="Times,serif" font-size="14.00">current_user_sports_graphic</text>
<text text-anchor="start" x="-303.799" y="-82.5321" font-family="Times,serif" font-size="14.00">index</text>
<polyline fill="none" stroke="black" points="-311.799,-75.7321 -127.854,-75.7321 "/>
<polyline fill="none" stroke="black" points="-311.799,-51.7321 -127.854,-51.7321 "/>
<text text-anchor="start" x="-303.799" y="-36.5321" font-family="Times,serif" font-size="14.00">_layout</text>
<text text-anchor="start" x="-303.799" y="-22.5321" font-family="Times,serif" font-size="14.00">add_and_return_array</text>
<text text-anchor="start" x="-303.799" y="-8.53208" font-family="Times,serif" font-size="14.00">first_time_user</text>
<text text-anchor="start" x="-303.799" y="5.46792" font-family="Times,serif" font-size="14.00">render_json</text>
</g>
<!-- ApplicationController -->
<g id="node3" class="node"><title>ApplicationController</title>
<path fill="none" stroke="black" d="M-85.229,131.752C-85.229,131.752 63.0542,131.752 63.0542,131.752 69.0542,131.752 75.0542,125.752 75.0542,119.752 75.0542,119.752 75.0542,-100.248 75.0542,-100.248 75.0542,-106.248 69.0542,-112.248 63.0542,-112.248 63.0542,-112.248 -85.229,-112.248 -85.229,-112.248 -91.229,-112.248 -97.229,-106.248 -97.229,-100.248 -97.229,-100.248 -97.229,119.752 -97.229,119.752 -97.229,125.752 -91.229,131.752 -85.229,131.752"/>
<text text-anchor="middle" x="-11.0874" y="-97.0483" font-family="Times,serif" font-size="14.00">ApplicationController</text>
<polyline fill="none" stroke="black" points="-97.229,-90.2483 75.0542,-90.2483 "/>
<text text-anchor="start" x="-89.229" y="-75.0483" font-family="Times,serif" font-size="14.00">after_sign_in_path_for</text>
<text text-anchor="start" x="-89.229" y="-61.0483" font-family="Times,serif" font-size="14.00">after_sign_out_path_for</text>
<text text-anchor="start" x="-89.229" y="-47.0483" font-family="Times,serif" font-size="14.00">current_user_last_messages</text>
<text text-anchor="start" x="-89.229" y="-33.0483" font-family="Times,serif" font-size="14.00">karma_for_adding_friend</text>
<text text-anchor="start" x="-89.229" y="-19.0483" font-family="Times,serif" font-size="14.00">karma_for_all_progress</text>
<text text-anchor="start" x="-89.229" y="-5.04834" font-family="Times,serif" font-size="14.00">karma_for_profile</text>
<text text-anchor="start" x="-89.229" y="8.95166" font-family="Times,serif" font-size="14.00">karma_for_smoking</text>
<text text-anchor="start" x="-89.229" y="22.9517" font-family="Times,serif" font-size="14.00">karma_for_sporting</text>
<text text-anchor="start" x="-89.229" y="36.9517" font-family="Times,serif" font-size="14.00">redirect_to_setup_path</text>
<text text-anchor="start" x="-89.229" y="50.9517" font-family="Times,serif" font-size="14.00">self_and_friends</text>
<text text-anchor="start" x="-89.229" y="64.9517" font-family="Times,serif" font-size="14.00">set_flash_and_redirect</text>
<text text-anchor="start" x="-89.229" y="78.9517" font-family="Times,serif" font-size="14.00">user_hash_to_cookie</text>
<polyline fill="none" stroke="black" points="-97.229,85.7517 75.0542,85.7517 "/>
<polyline fill="none" stroke="black" points="-97.229,109.752 75.0542,109.752 "/>
<text text-anchor="start" x="-89.229" y="124.952" font-family="Times,serif" font-size="14.00">_layout</text>
</g>
<!-- ApplicationController&#45;&gt;AnalysisController -->
<g id="edge1" class="edge"><title>ApplicationController&#45;&gt;AnalysisController</title>
<path fill="none" stroke="black" d="M-97.4965,-22.3233C-107.479,-26.0286 -117.687,-29.8179 -127.741,-33.5499"/>
</g>
<!-- CommentsController -->
<g id="node4" class="node"><title>CommentsController</title>
<path fill="none" stroke="black" d="M-60.2561,293.337C-60.2561,293.337 49.9578,293.337 49.9578,293.337 55.9578,293.337 61.9578,287.337 61.9578,281.337 61.9578,281.337 61.9578,173.337 61.9578,173.337 61.9578,167.337 55.9578,161.337 49.9578,161.337 49.9578,161.337 -60.2561,161.337 -60.2561,161.337 -66.2561,161.337 -72.2561,167.337 -72.2561,173.337 -72.2561,173.337 -72.2561,281.337 -72.2561,281.337 -72.2561,287.337 -66.2561,293.337 -60.2561,293.337"/>
<text text-anchor="middle" x="-5.14918" y="176.537" font-family="Times,serif" font-size="14.00">CommentsController</text>
<polyline fill="none" stroke="black" points="-72.2561,183.337 61.9578,183.337 "/>
<text text-anchor="start" x="-64.2561" y="198.537" font-family="Times,serif" font-size="14.00">create</text>
<text text-anchor="start" x="-64.2561" y="212.537" font-family="Times,serif" font-size="14.00">destroy</text>
<polyline fill="none" stroke="black" points="-72.2561,219.337 61.9578,219.337 "/>
<polyline fill="none" stroke="black" points="-72.2561,243.337 61.9578,243.337 "/>
<text text-anchor="start" x="-64.2561" y="258.537" font-family="Times,serif" font-size="14.00">_layout</text>
<text text-anchor="start" x="-64.2561" y="272.537" font-family="Times,serif" font-size="14.00">comment_params</text>
<text text-anchor="start" x="-64.2561" y="286.537" font-family="Times,serif" font-size="14.00">set_comment</text>
</g>
<!-- ApplicationController&#45;&gt;CommentsController -->
<g id="edge2" class="edge"><title>ApplicationController&#45;&gt;CommentsController</title>
<path fill="none" stroke="black" d="M-7.75378,131.901C-7.47882,141.975 -7.20811,151.895 -6.95125,161.307"/>
</g>
<!-- FriendsController -->
<g id="node5" class="node"><title>FriendsController</title>
<path fill="none" stroke="black" d="M-71.2754,-124.19C-71.2754,-124.19 54.4492,-124.19 54.4492,-124.19 60.4492,-124.19 66.4492,-130.19 66.4492,-136.19 66.4492,-136.19 66.4492,-286.19 66.4492,-286.19 66.4492,-292.19 60.4492,-298.19 54.4492,-298.19 54.4492,-298.19 -71.2754,-298.19 -71.2754,-298.19 -77.2754,-298.19 -83.2754,-292.19 -83.2754,-286.19 -83.2754,-286.19 -83.2754,-136.19 -83.2754,-136.19 -83.2754,-130.19 -77.2754,-124.19 -71.2754,-124.19"/>
<text text-anchor="middle" x="-8.41307" y="-282.99" font-family="Times,serif" font-size="14.00">FriendsController</text>
<polyline fill="none" stroke="black" points="-83.2754,-276.19 66.4492,-276.19 "/>
<text text-anchor="start" x="-75.2754" y="-260.99" font-family="Times,serif" font-size="14.00">accept</text>
<text text-anchor="start" x="-75.2754" y="-246.99" font-family="Times,serif" font-size="14.00">create</text>
<text text-anchor="start" x="-75.2754" y="-232.99" font-family="Times,serif" font-size="14.00">destroy</text>
<text text-anchor="start" x="-75.2754" y="-218.99" font-family="Times,serif" font-size="14.00">index</text>
<text text-anchor="start" x="-75.2754" y="-204.99" font-family="Times,serif" font-size="14.00">search</text>
<polyline fill="none" stroke="black" points="-83.2754,-198.19 66.4492,-198.19 "/>
<polyline fill="none" stroke="black" points="-83.2754,-174.19 66.4492,-174.19 "/>
<text text-anchor="start" x="-75.2754" y="-158.99" font-family="Times,serif" font-size="14.00">_layout</text>
<text text-anchor="start" x="-75.2754" y="-144.99" font-family="Times,serif" font-size="14.00">accepted_request_ids</text>
<text text-anchor="start" x="-75.2754" y="-130.99" font-family="Times,serif" font-size="14.00">unaccepted_request_ids</text>
</g>
<!-- ApplicationController&#45;&gt;FriendsController -->
<g id="edge3" class="edge"><title>ApplicationController&#45;&gt;FriendsController</title>
<path fill="none" stroke="black" d="M-9.60944,-112.351C-9.56233,-116.244 -9.51545,-120.116 -9.46905,-123.95"/>
</g>
<!-- MessagesController -->
<g id="node6" class="node"><title>MessagesController</title>
<path fill="none" stroke="black" d="M145.08,-163.569C145.08,-163.569 249.06,-163.569 249.06,-163.569 255.06,-163.569 261.06,-169.569 261.06,-175.569 261.06,-175.569 261.06,-255.569 261.06,-255.569 261.06,-261.569 255.06,-267.569 249.06,-267.569 249.06,-267.569 145.08,-267.569 145.08,-267.569 139.08,-267.569 133.08,-261.569 133.08,-255.569 133.08,-255.569 133.08,-175.569 133.08,-175.569 133.08,-169.569 139.08,-163.569 145.08,-163.569"/>
<text text-anchor="middle" x="197.07" y="-252.369" font-family="Times,serif" font-size="14.00">MessagesController</text>
<polyline fill="none" stroke="black" points="133.08,-245.569 261.06,-245.569 "/>
<text text-anchor="start" x="141.08" y="-230.369" font-family="Times,serif" font-size="14.00">index</text>
<text text-anchor="start" x="141.08" y="-216.369" font-family="Times,serif" font-size="14.00">show</text>
<polyline fill="none" stroke="black" points="133.08,-209.569 261.06,-209.569 "/>
<polyline fill="none" stroke="black" points="133.08,-185.569 261.06,-185.569 "/>
<text text-anchor="start" x="141.08" y="-170.369" font-family="Times,serif" font-size="14.00">_layout</text>
</g>
<!-- ApplicationController&#45;&gt;MessagesController -->
<g id="edge4" class="edge"><title>ApplicationController&#45;&gt;MessagesController</title>
<path fill="none" stroke="black" d="M75.0808,-83.5213C100.246,-110.762 126.852,-139.561 148.773,-163.289"/>
</g>
<!-- PagesController -->
<g id="node7" class="node"><title>PagesController</title>
<path fill="none" stroke="black" d="M-294.612,-180.812C-294.612,-180.812 -149.405,-180.812 -149.405,-180.812 -143.405,-180.812 -137.405,-186.812 -137.405,-192.812 -137.405,-192.812 -137.405,-286.812 -137.405,-286.812 -137.405,-292.812 -143.405,-298.812 -149.405,-298.812 -149.405,-298.812 -294.612,-298.812 -294.612,-298.812 -300.612,-298.812 -306.612,-292.812 -306.612,-286.812 -306.612,-286.812 -306.612,-192.812 -306.612,-192.812 -306.612,-186.812 -300.612,-180.812 -294.612,-180.812"/>
<text text-anchor="middle" x="-222.009" y="-283.612" font-family="Times,serif" font-size="14.00">PagesController</text>
<polyline fill="none" stroke="black" points="-306.612,-276.812 -137.405,-276.812 "/>
<text text-anchor="start" x="-298.612" y="-261.612" font-family="Times,serif" font-size="14.00">index</text>
<text text-anchor="start" x="-298.612" y="-247.612" font-family="Times,serif" font-size="14.00">privacy_policy</text>
<polyline fill="none" stroke="black" points="-306.612,-240.812 -137.405,-240.812 "/>
<polyline fill="none" stroke="black" points="-306.612,-216.812 -137.405,-216.812 "/>
<text text-anchor="start" x="-298.612" y="-201.612" font-family="Times,serif" font-size="14.00">_layout</text>
<text text-anchor="start" x="-298.612" y="-187.612" font-family="Times,serif" font-size="14.00">find_user_with_friendly_id</text>
</g>
<!-- ApplicationController&#45;&gt;PagesController -->
<g id="edge5" class="edge"><title>ApplicationController&#45;&gt;PagesController</title>
<path fill="none" stroke="black" d="M-93.3332,-112.602C-103.48,-125.86 -114.03,-138.894 -124.654,-150.932 -133.513,-160.97 -143.407,-171.062 -153.4,-180.659"/>
</g>
<!-- ProgressController -->
<g id="node8" class="node"><title>ProgressController</title>
<path fill="none" stroke="black" d="M-270.346,139.356C-270.346,139.356 -172.581,139.356 -172.581,139.356 -166.581,139.356 -160.581,133.356 -160.581,127.356 -160.581,127.356 -160.581,47.356 -160.581,47.356 -160.581,41.356 -166.581,35.356 -172.581,35.356 -172.581,35.356 -270.346,35.356 -270.346,35.356 -276.346,35.356 -282.346,41.356 -282.346,47.356 -282.346,47.356 -282.346,127.356 -282.346,127.356 -282.346,133.356 -276.346,139.356 -270.346,139.356"/>
<text text-anchor="middle" x="-221.463" y="50.556" font-family="Times,serif" font-size="14.00">ProgressController</text>
<polyline fill="none" stroke="black" points="-282.346,57.356 -160.581,57.356 "/>
<text text-anchor="start" x="-274.346" y="72.556" font-family="Times,serif" font-size="14.00">index</text>
<polyline fill="none" stroke="black" points="-282.346,79.356 -160.581,79.356 "/>
<polyline fill="none" stroke="black" points="-282.346,103.356 -160.581,103.356 "/>
<text text-anchor="start" x="-274.346" y="118.556" font-family="Times,serif" font-size="14.00">_layout</text>
<text text-anchor="start" x="-274.346" y="132.556" font-family="Times,serif" font-size="14.00">user</text>
</g>
<!-- ApplicationController&#45;&gt;ProgressController -->
<g id="edge6" class="edge"><title>ApplicationController&#45;&gt;ProgressController</title>
<path fill="none" stroke="black" d="M-97.2624,41.5402C-118.482,49.3677 -140.769,57.5892 -160.514,64.8726"/>
</g>
<!-- SmokesController -->
<g id="node9" class="node"><title>SmokesController</title>
<path fill="none" stroke="black" d="M139.266,70.3058C139.266,70.3058 250.246,70.3058 250.246,70.3058 256.246,70.3058 262.246,64.3058 262.246,58.3058 262.246,58.3058 262.246,-49.6942 262.246,-49.6942 262.246,-55.6942 256.246,-61.6942 250.246,-61.6942 250.246,-61.6942 139.266,-61.6942 139.266,-61.6942 133.266,-61.6942 127.266,-55.6942 127.266,-49.6942 127.266,-49.6942 127.266,58.3058 127.266,58.3058 127.266,64.3058 133.266,70.3058 139.266,70.3058"/>
<text text-anchor="middle" x="194.756" y="-46.4942" font-family="Times,serif" font-size="14.00">SmokesController</text>
<polyline fill="none" stroke="black" points="127.266,-39.6942 262.246,-39.6942 "/>
<text text-anchor="start" x="135.266" y="-24.4942" font-family="Times,serif" font-size="14.00">create</text>
<text text-anchor="start" x="135.266" y="-10.4942" font-family="Times,serif" font-size="14.00">find_smoke_for_date</text>
<text text-anchor="start" x="135.266" y="3.50578" font-family="Times,serif" font-size="14.00">new</text>
<polyline fill="none" stroke="black" points="127.266,10.3058 262.246,10.3058 "/>
<polyline fill="none" stroke="black" points="127.266,34.3058 262.246,34.3058 "/>
<text text-anchor="start" x="135.266" y="49.5058" font-family="Times,serif" font-size="14.00">_layout</text>
<text text-anchor="start" x="135.266" y="63.5058" font-family="Times,serif" font-size="14.00">smoke_params</text>
</g>
<!-- ApplicationController&#45;&gt;SmokesController -->
<g id="edge7" class="edge"><title>ApplicationController&#45;&gt;SmokesController</title>
<path fill="none" stroke="black" d="M75.314,7.46579C92.5874,7.0088 110.498,6.53494 127.032,6.09753"/>
</g>
<!-- SportsController -->
<g id="node10" class="node"><title>SportsController</title>
<path fill="none" stroke="black" d="M-286.161,350.019C-286.161,350.019 -153.416,350.019 -153.416,350.019 -147.416,350.019 -141.416,344.019 -141.416,338.019 -141.416,338.019 -141.416,174.019 -141.416,174.019 -141.416,168.019 -147.416,162.019 -153.416,162.019 -153.416,162.019 -286.161,162.019 -286.161,162.019 -292.161,162.019 -298.161,168.019 -298.161,174.019 -298.161,174.019 -298.161,338.019 -298.161,338.019 -298.161,344.019 -292.161,350.019 -286.161,350.019"/>
<text text-anchor="middle" x="-219.789" y="177.219" font-family="Times,serif" font-size="14.00">SportsController</text>
<polyline fill="none" stroke="black" points="-298.161,184.019 -141.416,184.019 "/>
<text text-anchor="start" x="-290.161" y="199.219" font-family="Times,serif" font-size="14.00">create</text>
<text text-anchor="start" x="-290.161" y="213.219" font-family="Times,serif" font-size="14.00">find_sport_for_date</text>
<text text-anchor="start" x="-290.161" y="227.219" font-family="Times,serif" font-size="14.00">new</text>
<polyline fill="none" stroke="black" points="-298.161,234.019 -141.416,234.019 "/>
<polyline fill="none" stroke="black" points="-298.161,258.019 -141.416,258.019 "/>
<text text-anchor="start" x="-290.161" y="273.219" font-family="Times,serif" font-size="14.00">_layout</text>
<text text-anchor="start" x="-290.161" y="287.219" font-family="Times,serif" font-size="14.00">all_populair_sports</text>
<text text-anchor="start" x="-290.161" y="301.219" font-family="Times,serif" font-size="14.00">get_total_duration</text>
<text text-anchor="start" x="-290.161" y="315.219" font-family="Times,serif" font-size="14.00">get_total_duration_today</text>
<text text-anchor="start" x="-290.161" y="329.219" font-family="Times,serif" font-size="14.00">set_sport</text>
<text text-anchor="start" x="-290.161" y="343.219" font-family="Times,serif" font-size="14.00">sport_params</text>
</g>
<!-- ApplicationController&#45;&gt;SportsController -->
<g id="edge8" class="edge"><title>ApplicationController&#45;&gt;SportsController</title>
<path fill="none" stroke="black" d="M-97.4807,111.696C-111.947,128.765 -126.887,146.395 -141.145,163.219"/>
</g>
<!-- UsersController -->
<g id="node13" class="node"><title>UsersController</title>
<path fill="none" stroke="black" d="M158.209,313.453C158.209,313.453 239.637,313.453 239.637,313.453 245.637,313.453 251.637,307.453 251.637,301.453 251.637,301.453 251.637,151.453 251.637,151.453 251.637,145.453 245.637,139.453 239.637,139.453 239.637,139.453 158.209,139.453 158.209,139.453 152.209,139.453 146.209,145.453 146.209,151.453 146.209,151.453 146.209,301.453 146.209,301.453 146.209,307.453 152.209,313.453 158.209,313.453"/>
<text text-anchor="middle" x="198.923" y="154.653" font-family="Times,serif" font-size="14.00">UsersController</text>
<polyline fill="none" stroke="black" points="146.209,161.453 251.637,161.453 "/>
<text text-anchor="start" x="154.209" y="176.653" font-family="Times,serif" font-size="14.00">destroy</text>
<text text-anchor="start" x="154.209" y="190.653" font-family="Times,serif" font-size="14.00">edit</text>
<text text-anchor="start" x="154.209" y="204.653" font-family="Times,serif" font-size="14.00">profile</text>
<text text-anchor="start" x="154.209" y="218.653" font-family="Times,serif" font-size="14.00">setup</text>
<text text-anchor="start" x="154.209" y="232.653" font-family="Times,serif" font-size="14.00">update</text>
<polyline fill="none" stroke="black" points="146.209,239.453 251.637,239.453 "/>
<polyline fill="none" stroke="black" points="146.209,263.453 251.637,263.453 "/>
<text text-anchor="start" x="154.209" y="278.653" font-family="Times,serif" font-size="14.00">_layout</text>
<text text-anchor="start" x="154.209" y="292.653" font-family="Times,serif" font-size="14.00">set_user</text>
<text text-anchor="start" x="154.209" y="306.653" font-family="Times,serif" font-size="14.00">user_params</text>
</g>
<!-- ApplicationController&#45;&gt;UsersController -->
<g id="edge11" class="edge"><title>ApplicationController&#45;&gt;UsersController</title>
<path fill="none" stroke="black" d="M75.2409,98.8307C99.2249,123.579 124.552,149.713 145.998,171.843"/>
</g>
<!-- Users::OmniauthCallbacksController -->
<g id="node11" class="node"><title>Users::OmniauthCallbacksController</title>
<path fill="none" stroke="black" d="M323.534,311.68C323.534,311.68 523.942,311.68 523.942,311.68 529.942,311.68 535.942,305.68 535.942,299.68 535.942,299.68 535.942,233.68 535.942,233.68 535.942,227.68 529.942,221.68 523.942,221.68 523.942,221.68 323.534,221.68 323.534,221.68 317.534,221.68 311.534,227.68 311.534,233.68 311.534,233.68 311.534,299.68 311.534,299.68 311.534,305.68 317.534,311.68 323.534,311.68"/>
<text text-anchor="middle" x="423.738" y="236.88" font-family="Times,serif" font-size="14.00">Users::OmniauthCallbacksController</text>
<polyline fill="none" stroke="black" points="311.534,243.68 535.942,243.68 "/>
<text text-anchor="start" x="319.534" y="258.88" font-family="Times,serif" font-size="14.00">facebook</text>
<polyline fill="none" stroke="black" points="311.534,265.68 535.942,265.68 "/>
<polyline fill="none" stroke="black" points="311.534,289.68 535.942,289.68 "/>
<text text-anchor="start" x="319.534" y="304.88" font-family="Times,serif" font-size="14.00">_layout</text>
</g>
<!-- Users::SessionsController -->
<g id="node12" class="node"><title>Users::SessionsController</title>
<path fill="none" stroke="black" d="M324.484,155.679C324.484,155.679 461.926,155.679 461.926,155.679 467.926,155.679 473.926,149.679 473.926,143.679 473.926,143.679 473.926,77.6794 473.926,77.6794 473.926,71.6794 467.926,65.6794 461.926,65.6794 461.926,65.6794 324.484,65.6794 324.484,65.6794 318.484,65.6794 312.484,71.6794 312.484,77.6794 312.484,77.6794 312.484,143.679 312.484,143.679 312.484,149.679 318.484,155.679 324.484,155.679"/>
<text text-anchor="middle" x="393.205" y="80.8794" font-family="Times,serif" font-size="14.00">Users::SessionsController</text>
<polyline fill="none" stroke="black" points="312.484,87.6794 473.926,87.6794 "/>
<text text-anchor="start" x="320.484" y="102.879" font-family="Times,serif" font-size="14.00">new</text>
<polyline fill="none" stroke="black" points="312.484,109.679 473.926,109.679 "/>
<polyline fill="none" stroke="black" points="312.484,133.679 473.926,133.679 "/>
<text text-anchor="start" x="320.484" y="148.879" font-family="Times,serif" font-size="14.00">_layout</text>
</g>
<!-- Devise::OmniauthCallbacksController -->
<g id="node14" class="node"><title>Devise::OmniauthCallbacksController</title>
<ellipse fill="none" stroke="black" cx="695.415" cy="266.68" rx="146.34" ry="18"/>
<text text-anchor="middle" x="695.415" y="270.88" font-family="Times,serif" font-size="14.00">Devise::OmniauthCallbacksController</text>
</g>
<!-- Devise::OmniauthCallbacksController&#45;&gt;Users::OmniauthCallbacksController -->
<g id="edge9" class="edge"><title>Devise::OmniauthCallbacksController&#45;&gt;Users::OmniauthCallbacksController</title>
<path fill="none" stroke="black" d="M549.238,266.68C544.842,266.68 540.461,266.68 536.113,266.68"/>
</g>
<!-- Devise::SessionsController -->
<g id="node15" class="node"><title>Devise::SessionsController</title>
<ellipse fill="none" stroke="black" cx="587.642" cy="110.681" rx="106.292" ry="18"/>
<text text-anchor="middle" x="587.642" y="114.881" font-family="Times,serif" font-size="14.00">Devise::SessionsController</text>
</g>
<!-- Devise::SessionsController&#45;&gt;Users::SessionsController -->
<g id="edge10" class="edge"><title>Devise::SessionsController&#45;&gt;Users::SessionsController</title>
<path fill="none" stroke="black" d="M481.037,110.68C478.738,110.68 476.445,110.68 474.165,110.68"/>
</g>
</g>
</svg>
