<?xml version="1.0" encoding="UTF-8" standalone="no"?>
<!DOCTYPE svg PUBLIC "-//W3C//DTD SVG 1.1//EN"
 "http://www.w3.org/Graphics/SVG/1.1/DTD/svg11.dtd">
<!-- Generated by graphviz version 2.38.0 (20140413.2041)
 -->
<!-- Title: models_diagram Pages: 1 -->
<svg width="1331pt" height="313pt"
 viewBox="0.00 0.00 1331.47 313.00" xmlns="http://www.w3.org/2000/svg" xmlns:xlink="http://www.w3.org/1999/xlink">
<g id="graph0" class="graph" transform="scale(1 1) rotate(0) translate(4 309)">
<title>models_diagram</title>
<polygon fill="white" stroke="none" points="-4,4 -4,-309 1327.47,-309 1327.47,4 -4,4"/>
<!-- _diagram_info -->
<g id="node1" class="node"><title>_diagram_info</title>
<text text-anchor="start" x="377.513" y="-290.6" font-family="Times,serif" font-size="13.00">Models diagram</text>
<text text-anchor="start" x="377.513" y="-277.6" font-family="Times,serif" font-size="13.00">Date: Jul 30 2014 &#45; 20:33</text>
<text text-anchor="start" x="377.513" y="-264.6" font-family="Times,serif" font-size="13.00">Migration version: 20140724143446</text>
<text text-anchor="start" x="377.513" y="-251.6" font-family="Times,serif" font-size="13.00">Generated by RailRoady 1.1.1</text>
<text text-anchor="start" x="377.513" y="-238.6" font-family="Times,serif" font-size="13.00">http://railroady.prestonlee.com</text>
</g>
<!-- Achievement -->
<g id="node2" class="node"><title>Achievement</title>
<ellipse fill="none" stroke="black" cx="286.2" cy="-104" rx="57.0047" ry="18"/>
<text text-anchor="middle" x="286.2" y="-99.8" font-family="Times,serif" font-size="14.00">Achievement</text>
</g>
<!-- Comment -->
<g id="node3" class="node"><title>Comment</title>
<ellipse fill="none" stroke="black" cx="56.2004" cy="-18" rx="44.9768" ry="18"/>
<text text-anchor="middle" x="56.2004" y="-13.8" font-family="Times,serif" font-size="14.00">Comment</text>
</g>
<!-- Friendship -->
<g id="node4" class="node"><title>Friendship</title>
<ellipse fill="none" stroke="black" cx="163.2" cy="-104" rx="47.8754" ry="18"/>
<text text-anchor="middle" x="163.2" y="-99.8" font-family="Times,serif" font-size="14.00">Friendship</text>
</g>
<!-- Message -->
<g id="node5" class="node"><title>Message</title>
<ellipse fill="none" stroke="black" cx="56.2004" cy="-104" rx="41.1007" ry="18"/>
<text text-anchor="middle" x="56.2004" y="-99.8" font-family="Times,serif" font-size="14.00">Message</text>
</g>
<!-- Message&#45;&gt;Comment -->
<g id="edge4" class="edge"><title>Message&#45;&gt;Comment</title>
<path fill="none" stroke="#c2de99" d="M56.2004,-77.2567C56.2004,-67.4415 56.2004,-56.2256 56.2004,-46.2729"/>
<ellipse fill="none" stroke="#c2de99" cx="56.2005" cy="-81.5951" rx="4" ry="4"/>
<polygon fill="#c2de99" stroke="#c2de99" points="56.2005,-46.0952 60.7004,-36.0951 56.2005,-41.0952 56.2004,-36.0952 56.2004,-36.0952 56.2004,-36.0952 56.2005,-41.0952 51.7004,-36.0952 56.2005,-46.0952 56.2005,-46.0952"/>
</g>
<!-- PopulairSport -->
<g id="node6" class="node"><title>PopulairSport</title>
<ellipse fill="none" stroke="black" cx="1205.2" cy="-177" rx="59.4773" ry="18"/>
<text text-anchor="middle" x="1205.2" y="-172.8" font-family="Times,serif" font-size="14.00">PopulairSport</text>
</g>
<!-- Sport -->
<g id="node8" class="node"><title>Sport</title>
<ellipse fill="none" stroke="black" cx="1294.2" cy="-104" rx="29.0429" ry="18"/>
<text text-anchor="middle" x="1294.2" y="-99.8" font-family="Times,serif" font-size="14.00">Sport</text>
</g>
<!-- PopulairSport&#45;&gt;Sport -->
<g id="edge6" class="edge"><title>PopulairSport&#45;&gt;Sport</title>
<path fill="none" stroke="#50c14c" d="M1231.88,-154.714C1243.68,-145.306 1257.47,-134.304 1269.07,-125.044"/>
<ellipse fill="none" stroke="#50c14c" cx="1228.52" cy="-157.394" rx="4.00002" ry="4.00002"/>
<polygon fill="#50c14c" stroke="#50c14c" points="1269.26,-124.894 1279.89,-122.176 1273.17,-121.776 1277.08,-118.658 1277.08,-118.658 1277.08,-118.658 1273.17,-121.776 1274.27,-115.14 1269.26,-124.894 1269.26,-124.894"/>
</g>
<!-- Smoke -->
<g id="node7" class="node"><title>Smoke</title>
<ellipse fill="none" stroke="black" cx="668.2" cy="-104" rx="34.8458" ry="18"/>
<text text-anchor="middle" x="668.2" y="-99.8" font-family="Times,serif" font-size="14.00">Smoke</text>
</g>
<!-- PublicActivity::Activity -->
<g id="node16" class="node"><title>PublicActivity::Activity</title>
<ellipse fill="none" stroke="black" cx="755.2" cy="-18" rx="95.6759" ry="18"/>
<text text-anchor="middle" x="755.2" y="-13.8" font-family="Times,serif" font-size="14.00">PublicActivity::Activity</text>
</g>
<!-- Sport&#45;&gt;PublicActivity::Activity -->
<g id="edge9" class="edge"><title>Sport&#45;&gt;PublicActivity::Activity</title>
<path fill="none" stroke="#eb2644" d="M1264.41,-89.0231C1261.34,-87.8835 1258.24,-86.8469 1255.2,-86 1120.09,-48.2953 958.322,-31.5442 856.143,-24.2864"/>
<ellipse fill="none" stroke="#eb2644" cx="1268.19" cy="-90.5339" rx="4.00001" ry="4.00001"/>
<polygon fill="#eb2644" stroke="#eb2644" points="856.113,-24.2844 846.448,-19.1033 851.125,-23.9385 846.137,-23.5925 846.137,-23.5925 846.137,-23.5925 851.125,-23.9385 845.825,-28.0818 856.113,-24.2844 856.113,-24.2844"/>
<text text-anchor="middle" x="1199.47" y="-56.8" font-family="Times,serif" font-size="14.00">activities</text>
</g>
<!-- User -->
<g id="node9" class="node"><title>User</title>
<ellipse fill="none" stroke="black" cx="565.2" cy="-177" rx="27" ry="18"/>
<text text-anchor="middle" x="565.2" y="-172.8" font-family="Times,serif" font-size="14.00">User</text>
</g>
<!-- User&#45;&gt;Achievement -->
<g id="edge21" class="edge"><title>User&#45;&gt;Achievement</title>
<path fill="none" stroke="#758508" d="M532.35,-167.713C490.504,-157.147 415.959,-138.293 352.2,-122 347.893,-120.899 343.427,-119.755 338.943,-118.604"/>
<ellipse fill="none" stroke="#758508" cx="536.392" cy="-168.733" rx="4.00001" ry="4.00001"/>
<polygon fill="#758508" stroke="#758508" points="338.838,-118.577 330.272,-111.73 333.995,-117.333 329.153,-116.089 329.153,-116.089 329.153,-116.089 333.995,-117.333 328.033,-120.447 338.838,-118.577 338.838,-118.577"/>
</g>
<!-- User&#45;&gt;Comment -->
<g id="edge20" class="edge"><title>User&#45;&gt;Comment</title>
<path fill="none" stroke="#c622cd" d="M554.736,-152.277C544.148,-131.253 525.702,-101.549 500.2,-86 435.771,-46.7154 214.859,-28.5304 110.994,-21.9994"/>
<ellipse fill="none" stroke="#c622cd" cx="556.535" cy="-155.988" rx="4.00002" ry="4.00002"/>
<polygon fill="#c622cd" stroke="#c622cd" points="110.699,-21.9813 100.994,-16.8758 105.709,-21.6743 100.718,-21.3673 100.718,-21.3673 100.718,-21.3673 105.709,-21.6743 100.442,-25.8588 110.699,-21.9813 110.699,-21.9813"/>
</g>
<!-- User&#45;&gt;Friendship -->
<g id="edge22" class="edge"><title>User&#45;&gt;Friendship</title>
<path fill="none" stroke="#2df510" d="M530.604,-172.149C468.128,-164.85 332.53,-147.42 220.2,-122 216.345,-121.127 212.368,-120.136 208.392,-119.08"/>
<ellipse fill="none" stroke="#2df510" cx="534.595" cy="-172.611" rx="4.00001" ry="4.00001"/>
<polygon fill="#2df510" stroke="#2df510" points="208.216,-119.031 199.785,-112.019 203.398,-117.693 198.58,-116.355 198.58,-116.355 198.58,-116.355 203.398,-117.693 197.376,-120.691 208.216,-119.031 208.216,-119.031"/>
</g>
<!-- User&#45;&gt;Message -->
<g id="edge19" class="edge"><title>User&#45;&gt;Message</title>
<path fill="none" stroke="#01789b" d="M530.229,-174.399C452.908,-170.315 261.938,-157.222 106.2,-122 102.834,-121.239 99.3772,-120.334 95.9285,-119.344"/>
<ellipse fill="none" stroke="#01789b" cx="534.227" cy="-174.605" rx="4" ry="4"/>
<polygon fill="#01789b" stroke="#01789b" points="95.8699,-119.326 87.6409,-112.078 91.0921,-117.852 86.3143,-116.378 86.3143,-116.378 86.3143,-116.378 91.0921,-117.852 84.9877,-120.678 95.8699,-119.326 95.8699,-119.326"/>
</g>
<!-- User&#45;&gt;Smoke -->
<g id="edge17" class="edge"><title>User&#45;&gt;Smoke</title>
<path fill="none" stroke="#c055fb" d="M590.365,-158.653C605.234,-148.404 624.11,-135.393 639.549,-124.75"/>
<ellipse fill="none" stroke="#c055fb" cx="586.908" cy="-161.036" rx="4.00002" ry="4.00002"/>
<polygon fill="#c055fb" stroke="#c055fb" points="639.953,-124.472 650.74,-122.501 644.07,-121.634 648.186,-118.796 648.186,-118.796 648.186,-118.796 644.07,-121.634 645.632,-115.091 639.953,-124.472 639.953,-124.472"/>
</g>
<!-- User&#45;&gt;Sport -->
<g id="edge18" class="edge"><title>User&#45;&gt;Sport</title>
<path fill="none" stroke="#41424e" d="M599.872,-173.535C677.499,-167.988 871.189,-153.991 1033.2,-141 1131.91,-133.085 1159.21,-146.329 1255.2,-122 1257.71,-121.365 1260.26,-120.586 1262.79,-119.714"/>
<ellipse fill="none" stroke="#41424e" cx="595.845" cy="-173.822" rx="4" ry="4"/>
<polygon fill="#41424e" stroke="#41424e" points="1263.04,-119.615 1274,-120.194 1267.71,-117.807 1272.37,-115.999 1272.37,-115.999 1272.37,-115.999 1267.71,-117.807 1270.74,-111.803 1263.04,-119.615 1263.04,-119.615"/>
</g>
<!-- User&#45;&gt;User -->
<g id="edge23" class="edge"><title>User&#45;&gt;User</title>
<path fill="none" stroke="#7a2572" d="M600.689,-183.212C606.336,-182.301 610.2,-180.23 610.2,-177 610.2,-173.77 606.336,-171.699 600.689,-170.788"/>
<polygon fill="#7a2572" stroke="#7a2572" points="600.633,-183.215 590.43,-179.196 595.638,-183.453 590.644,-183.691 590.644,-183.691 590.644,-183.691 595.638,-183.453 590.858,-188.186 600.633,-183.215 600.633,-183.215"/>
<polygon fill="#7a2572" stroke="#7a2572" points="600.633,-170.785 590.858,-165.814 595.638,-170.547 590.644,-170.309 590.644,-170.309 590.644,-170.309 595.638,-170.547 590.43,-174.804 600.633,-170.785 600.633,-170.785"/>
<text text-anchor="middle" x="629.638" y="-172.8" font-family="Times,serif" font-size="14.00">friends</text>
</g>
<!-- UserDetail -->
<g id="node10" class="node"><title>UserDetail</title>
<ellipse fill="none" stroke="black" cx="1079.2" cy="-104" rx="48.3255" ry="18"/>
<text text-anchor="middle" x="1079.2" y="-99.8" font-family="Times,serif" font-size="14.00">UserDetail</text>
</g>
<!-- User&#45;&gt;UserDetail -->
<g id="edge13" class="edge"><title>User&#45;&gt;UserDetail</title>
<path fill="none" stroke="#e1df17" d="M600.392,-173.914C677.488,-168.894 866.819,-154.101 1022.2,-122 1026.8,-121.05 1031.56,-119.9 1036.29,-118.653"/>
<ellipse fill="none" stroke="#e1df17" cx="595.979" cy="-174.197" rx="4" ry="4"/>
<ellipse fill="#e1df17" stroke="#e1df17" cx="1040.32" cy="-117.542" rx="4.00001" ry="4.00001"/>
</g>
<!-- UserNotice -->
<g id="node11" class="node"><title>UserNotice</title>
<ellipse fill="none" stroke="black" cx="1196.2" cy="-104" rx="50.2551" ry="18"/>
<text text-anchor="middle" x="1196.2" y="-99.8" font-family="Times,serif" font-size="14.00">UserNotice</text>
</g>
<!-- User&#45;&gt;UserNotice -->
<g id="edge14" class="edge"><title>User&#45;&gt;UserNotice</title>
<path fill="none" stroke="#213b3e" d="M600.412,-174.894C690.367,-171.591 935.671,-159.567 1136.2,-122 1141.23,-121.058 1146.44,-119.885 1151.61,-118.597"/>
<ellipse fill="none" stroke="#213b3e" cx="596.196" cy="-175.045" rx="4" ry="4"/>
<ellipse fill="#213b3e" stroke="#213b3e" cx="1155.77" cy="-117.509" rx="4.00001" ry="4.00001"/>
</g>
<!-- UserPreference -->
<g id="node12" class="node"><title>UserPreference</title>
<ellipse fill="none" stroke="black" cx="426.2" cy="-104" rx="64.7113" ry="18"/>
<text text-anchor="middle" x="426.2" y="-99.8" font-family="Times,serif" font-size="14.00">UserPreference</text>
</g>
<!-- User&#45;&gt;UserPreference -->
<g id="edge12" class="edge"><title>User&#45;&gt;UserPreference</title>
<path fill="none" stroke="#423e08" d="M537.086,-161.64C515.733,-150.732 486.181,-135.638 462.955,-123.774"/>
<ellipse fill="none" stroke="#423e08" cx="540.829" cy="-163.551" rx="4.00002" ry="4.00002"/>
<ellipse fill="#423e08" stroke="#423e08" cx="459.216" cy="-121.864" rx="4.00002" ry="4.00002"/>
</g>
<!-- UserProfile -->
<g id="node13" class="node"><title>UserProfile</title>
<ellipse fill="none" stroke="black" cx="771.2" cy="-104" rx="50.281" ry="18"/>
<text text-anchor="middle" x="771.2" y="-99.8" font-family="Times,serif" font-size="14.00">UserProfile</text>
</g>
<!-- User&#45;&gt;UserProfile -->
<g id="edge16" class="edge"><title>User&#45;&gt;UserProfile</title>
<path fill="none" stroke="#52da8e" d="M596.452,-165.229C631.699,-153.081 689.222,-133.255 728.574,-119.692"/>
<ellipse fill="none" stroke="#52da8e" cx="592.613" cy="-166.552" rx="4.00001" ry="4.00001"/>
<ellipse fill="#52da8e" stroke="#52da8e" cx="732.408" cy="-118.37" rx="4.00001" ry="4.00001"/>
</g>
<!-- UserSmokeAddiction -->
<g id="node14" class="node"><title>UserSmokeAddiction</title>
<ellipse fill="none" stroke="black" cx="926.2" cy="-104" rx="86.9809" ry="18"/>
<text text-anchor="middle" x="926.2" y="-99.8" font-family="Times,serif" font-size="14.00">UserSmokeAddiction</text>
</g>
<!-- User&#45;&gt;UserSmokeAddiction -->
<g id="edge15" class="edge"><title>User&#45;&gt;UserSmokeAddiction</title>
<path fill="none" stroke="#af90f2" d="M599.002,-169.352C657.755,-157.797 779.818,-133.79 857.114,-118.588"/>
<ellipse fill="none" stroke="#af90f2" cx="594.798" cy="-170.179" rx="4.00001" ry="4.00001"/>
<ellipse fill="#af90f2" stroke="#af90f2" cx="861.455" cy="-117.734" rx="4.00001" ry="4.00001"/>
</g>
<!-- User&#45;&gt;PublicActivity::Activity -->
<g id="edge11" class="edge"><title>User&#45;&gt;PublicActivity::Activity</title>
<path fill="none" stroke="#0116e8" d="M560.822,-150.629C558.904,-131.009 559.663,-104.207 573.662,-86 596.121,-56.7912 632.656,-40.3123 667.084,-31.0168"/>
<ellipse fill="none" stroke="#0116e8" cx="561.334" cy="-154.846" rx="4.00001" ry="4.00001"/>
<polygon fill="#0116e8" stroke="#0116e8" points="667.505,-30.9108 678.301,-32.8325 672.353,-29.6898 677.202,-28.4687 677.202,-28.4687 677.202,-28.4687 672.353,-29.6898 676.103,-24.1049 667.505,-30.9108 667.505,-30.9108"/>
<text text-anchor="middle" x="598.469" y="-99.8" font-family="Times,serif" font-size="14.00">activities</text>
</g>
<!-- ActiveRecord::Base -->
<g id="node15" class="node"><title>ActiveRecord::Base</title>
<ellipse fill="none" stroke="black" cx="676.2" cy="-268.5" rx="81.1422" ry="18"/>
<text text-anchor="middle" x="676.2" y="-264.3" font-family="Times,serif" font-size="14.00">ActiveRecord::Base</text>
</g>
<!-- ActiveRecord::Base&#45;&gt;Achievement -->
<g id="edge1" class="edge"><title>ActiveRecord::Base&#45;&gt;Achievement</title>
<path fill="none" stroke="black" d="M639.127,-252.436C622.94,-245.973 603.696,-238.444 586.2,-232 538.588,-214.464 525.24,-214.018 478.2,-195 419.156,-171.129 352.231,-138.42 315.041,-119.719"/>
</g>
<!-- ActiveRecord::Base&#45;&gt;Comment -->
<g id="edge2" class="edge"><title>ActiveRecord::Base&#45;&gt;Comment</title>
<path fill="none" stroke="black" d="M643.173,-251.84C626.465,-244.603 605.65,-236.608 586.2,-232 496.753,-210.807 263.273,-217.719 174.2,-195 95.315,-174.879 50.8458,-190.077 6.20043,-122 -12.8758,-92.9115 17.4937,-55.4605 38.6218,-34.6732"/>
</g>
<!-- ActiveRecord::Base&#45;&gt;Friendship -->
<g id="edge3" class="edge"><title>ActiveRecord::Base&#45;&gt;Friendship</title>
<path fill="none" stroke="black" d="M641.677,-252.143C625.142,-245.241 604.909,-237.441 586.2,-232 502.755,-207.73 477.697,-219.095 394.2,-195 319.765,-173.519 235.801,-137.751 192.509,-118.407"/>
</g>
<!-- ActiveRecord::Base&#45;&gt;Message -->
<g id="edge5" class="edge"><title>ActiveRecord::Base&#45;&gt;Message</title>
<path fill="none" stroke="black" d="M642.681,-251.939C626.029,-244.817 605.407,-236.892 586.2,-232 456.441,-198.948 417.029,-227.78 287.2,-195 210.624,-175.665 125.14,-137.807 82.8628,-117.914"/>
</g>
<!-- ActiveRecord::Base&#45;&gt;PopulairSport -->
<g id="edge7" class="edge"><title>ActiveRecord::Base&#45;&gt;PopulairSport</title>
<path fill="none" stroke="black" d="M756.924,-265.974C848.956,-262.414 1003.1,-250.88 1130.2,-214 1147.12,-209.09 1164.95,-200.683 1178.98,-193.229"/>
</g>
<!-- ActiveRecord::Base&#45;&gt;Smoke -->
<g id="edge8" class="edge"><title>ActiveRecord::Base&#45;&gt;Smoke</title>
<path fill="none" stroke="black" d="M675.359,-250.417C673.827,-219.289 670.596,-153.663 669.054,-122.343"/>
</g>
<!-- ActiveRecord::Base&#45;&gt;Sport -->
<g id="edge10" class="edge"><title>ActiveRecord::Base&#45;&gt;Sport</title>
<path fill="none" stroke="black" d="M753.888,-263.078C906.875,-253.655 1235.65,-229.598 1273.2,-195 1293.38,-176.41 1295.97,-142.498 1295.47,-122.029"/>
</g>
<!-- ActiveRecord::Base&#45;&gt;User -->
<g id="edge24" class="edge"><title>ActiveRecord::Base&#45;&gt;User</title>
<path fill="none" stroke="black" d="M655.582,-250.875C634.266,-233.688 601.404,-207.191 581.73,-191.328"/>
</g>
<!-- ActiveRecord::Base&#45;&gt;UserDetail -->
<g id="edge25" class="edge"><title>ActiveRecord::Base&#45;&gt;UserDetail</title>
<path fill="none" stroke="black" d="M713.752,-252.358C792.596,-220.566 974.141,-147.363 1047.54,-117.765"/>
</g>
<!-- ActiveRecord::Base&#45;&gt;UserNotice -->
<g id="edge26" class="edge"><title>ActiveRecord::Base&#45;&gt;UserNotice</title>
<path fill="none" stroke="black" d="M722.327,-253.646C770.315,-239.187 847.606,-215.769 914.2,-195 1002.75,-167.382 1106.63,-133.968 1160.19,-116.661"/>
</g>
<!-- ActiveRecord::Base&#45;&gt;UserPreference -->
<g id="edge27" class="edge"><title>ActiveRecord::Base&#45;&gt;UserPreference</title>
<path fill="none" stroke="black" d="M639.113,-252.42C608.486,-239.225 564.475,-218.525 529.2,-195 496.01,-172.865 462.024,-141.023 442.58,-121.746"/>
</g>
<!-- ActiveRecord::Base&#45;&gt;UserProfile -->
<g id="edge28" class="edge"><title>ActiveRecord::Base&#45;&gt;UserProfile</title>
<path fill="none" stroke="black" d="M686.188,-250.417C704.481,-219.126 743.154,-152.974 761.347,-121.854"/>
</g>
<!-- ActiveRecord::Base&#45;&gt;UserSmokeAddiction -->
<g id="edge29" class="edge"><title>ActiveRecord::Base&#45;&gt;UserSmokeAddiction</title>
<path fill="none" stroke="black" d="M701.085,-251.325C748.882,-220.257 853.037,-152.556 901.045,-121.351"/>
</g>
</g>
</svg>
