<?xml version="1.0" encoding="UTF-8" standalone="no"?>
<!DOCTYPE svg PUBLIC "-//W3C//DTD SVG 1.1//EN"
 "http://www.w3.org/Graphics/SVG/1.1/DTD/svg11.dtd">
<!-- Generated by graphviz version 2.38.0 (20140413.2041)
 -->
<!-- Title: models_diagram Pages: 1 -->
<svg width="1813pt" height="900pt"
 viewBox="0.00 0.00 1813.05 900.00" xmlns="http://www.w3.org/2000/svg" xmlns:xlink="http://www.w3.org/1999/xlink">
<g id="graph0" class="graph" transform="scale(1 1) rotate(0) translate(4 896)">
<title>models_diagram</title>
<polygon fill="white" stroke="none" points="-4,4 -4,-896 1809.05,-896 1809.05,4 -4,4"/>
<!-- _diagram_info -->
<g id="node1" class="node"><title>_diagram_info</title>
<text text-anchor="start" x="645.456" y="-877.6" font-family="Times,serif" font-size="13.00">Models diagram</text>
<text text-anchor="start" x="645.456" y="-864.6" font-family="Times,serif" font-size="13.00">Date: Jul 30 2014 &#45; 20:33</text>
<text text-anchor="start" x="645.456" y="-851.6" font-family="Times,serif" font-size="13.00">Migration version: 20140724143446</text>
<text text-anchor="start" x="645.456" y="-838.6" font-family="Times,serif" font-size="13.00">Generated by RailRoady 1.1.1</text>
<text text-anchor="start" x="645.456" y="-825.6" font-family="Times,serif" font-size="13.00">http://railroady.prestonlee.com</text>
</g>
<!-- Achievement -->
<g id="node2" class="node"><title>Achievement</title>
<path fill="none" stroke="black" d="M388.639,-221.5C388.639,-221.5 497.649,-221.5 497.649,-221.5 503.649,-221.5 509.649,-227.5 509.649,-233.5 509.649,-233.5 509.649,-309.5 509.649,-309.5 509.649,-315.5 503.649,-321.5 497.649,-321.5 497.649,-321.5 388.639,-321.5 388.639,-321.5 382.639,-321.5 376.639,-315.5 376.639,-309.5 376.639,-309.5 376.639,-233.5 376.639,-233.5 376.639,-227.5 382.639,-221.5 388.639,-221.5"/>
<text text-anchor="middle" x="443.144" y="-306.3" font-family="Times,serif" font-size="14.00">Achievement</text>
<polyline fill="none" stroke="black" points="376.639,-299.5 509.649,-299.5 "/>
<text text-anchor="start" x="384.639" y="-284.3" font-family="Times,serif" font-size="14.00">id :integer</text>
<text text-anchor="start" x="384.639" y="-270.3" font-family="Times,serif" font-size="14.00">user_id :integer</text>
<text text-anchor="start" x="384.639" y="-256.3" font-family="Times,serif" font-size="14.00">code :integer</text>
<text text-anchor="start" x="384.639" y="-242.3" font-family="Times,serif" font-size="14.00">created_at :datetime</text>
<text text-anchor="start" x="384.639" y="-228.3" font-family="Times,serif" font-size="14.00">updated_at :datetime</text>
</g>
<!-- Comment -->
<g id="node3" class="node"><title>Comment</title>
<path fill="none" stroke="black" d="M72.2455,-0.5C72.2455,-0.5 210.042,-0.5 210.042,-0.5 216.042,-0.5 222.042,-6.5 222.042,-12.5 222.042,-12.5 222.042,-130.5 222.042,-130.5 222.042,-136.5 216.042,-142.5 210.042,-142.5 210.042,-142.5 72.2455,-142.5 72.2455,-142.5 66.2455,-142.5 60.2455,-136.5 60.2455,-130.5 60.2455,-130.5 60.2455,-12.5 60.2455,-12.5 60.2455,-6.5 66.2455,-0.5 72.2455,-0.5"/>
<text text-anchor="middle" x="141.144" y="-127.3" font-family="Times,serif" font-size="14.00">Comment</text>
<polyline fill="none" stroke="black" points="60.2455,-120.5 222.042,-120.5 "/>
<text text-anchor="start" x="68.2455" y="-105.3" font-family="Times,serif" font-size="14.00">id :integer</text>
<text text-anchor="start" x="68.2455" y="-91.3" font-family="Times,serif" font-size="14.00">user_id :integer</text>
<text text-anchor="start" x="68.2455" y="-77.3" font-family="Times,serif" font-size="14.00">commentable_id :integer</text>
<text text-anchor="start" x="68.2455" y="-63.3" font-family="Times,serif" font-size="14.00">commentable_type :string</text>
<text text-anchor="start" x="68.2455" y="-49.3" font-family="Times,serif" font-size="14.00">created_at :datetime</text>
<text text-anchor="start" x="68.2455" y="-35.3" font-family="Times,serif" font-size="14.00">updated_at :datetime</text>
<text text-anchor="start" x="68.2455" y="-21.3" font-family="Times,serif" font-size="14.00">message :text</text>
<text text-anchor="start" x="68.2455" y="-7.3" font-family="Times,serif" font-size="14.00">message_id :integer</text>
</g>
<!-- Friendship -->
<g id="node4" class="node"><title>Friendship</title>
<path fill="none" stroke="black" d="M237.639,-207.5C237.639,-207.5 346.649,-207.5 346.649,-207.5 352.649,-207.5 358.649,-213.5 358.649,-219.5 358.649,-219.5 358.649,-323.5 358.649,-323.5 358.649,-329.5 352.649,-335.5 346.649,-335.5 346.649,-335.5 237.639,-335.5 237.639,-335.5 231.639,-335.5 225.639,-329.5 225.639,-323.5 225.639,-323.5 225.639,-219.5 225.639,-219.5 225.639,-213.5 231.639,-207.5 237.639,-207.5"/>
<text text-anchor="middle" x="292.144" y="-320.3" font-family="Times,serif" font-size="14.00">Friendship</text>
<polyline fill="none" stroke="black" points="225.639,-313.5 358.649,-313.5 "/>
<text text-anchor="start" x="233.639" y="-298.3" font-family="Times,serif" font-size="14.00">id :integer</text>
<text text-anchor="start" x="233.639" y="-284.3" font-family="Times,serif" font-size="14.00">user_id :integer</text>
<text text-anchor="start" x="233.639" y="-270.3" font-family="Times,serif" font-size="14.00">friend_id :integer</text>
<text text-anchor="start" x="233.639" y="-256.3" font-family="Times,serif" font-size="14.00">accepted :boolean</text>
<text text-anchor="start" x="233.639" y="-242.3" font-family="Times,serif" font-size="14.00">rejected :boolean</text>
<text text-anchor="start" x="233.639" y="-228.3" font-family="Times,serif" font-size="14.00">created_at :datetime</text>
<text text-anchor="start" x="233.639" y="-214.3" font-family="Times,serif" font-size="14.00">updated_at :datetime</text>
</g>
<!-- Message -->
<g id="node5" class="node"><title>Message</title>
<path fill="none" stroke="black" d="M86.6385,-200.5C86.6385,-200.5 195.649,-200.5 195.649,-200.5 201.649,-200.5 207.649,-206.5 207.649,-212.5 207.649,-212.5 207.649,-330.5 207.649,-330.5 207.649,-336.5 201.649,-342.5 195.649,-342.5 195.649,-342.5 86.6385,-342.5 86.6385,-342.5 80.6385,-342.5 74.6385,-336.5 74.6385,-330.5 74.6385,-330.5 74.6385,-212.5 74.6385,-212.5 74.6385,-206.5 80.6385,-200.5 86.6385,-200.5"/>
<text text-anchor="middle" x="141.144" y="-327.3" font-family="Times,serif" font-size="14.00">Message</text>
<polyline fill="none" stroke="black" points="74.6385,-320.5 207.649,-320.5 "/>
<text text-anchor="start" x="82.6385" y="-305.3" font-family="Times,serif" font-size="14.00">id :integer</text>
<text text-anchor="start" x="82.6385" y="-291.3" font-family="Times,serif" font-size="14.00">message :string</text>
<text text-anchor="start" x="82.6385" y="-277.3" font-family="Times,serif" font-size="14.00">karma :integer</text>
<text text-anchor="start" x="82.6385" y="-263.3" font-family="Times,serif" font-size="14.00">created_at :datetime</text>
<text text-anchor="start" x="82.6385" y="-249.3" font-family="Times,serif" font-size="14.00">updated_at :datetime</text>
<text text-anchor="start" x="82.6385" y="-235.3" font-family="Times,serif" font-size="14.00">seen :boolean</text>
<text text-anchor="start" x="82.6385" y="-221.3" font-family="Times,serif" font-size="14.00">user_id :integer</text>
<text text-anchor="start" x="82.6385" y="-207.3" font-family="Times,serif" font-size="14.00">friend_id :integer</text>
</g>
<!-- Message&#45;&gt;Comment -->
<g id="edge4" class="edge"><title>Message&#45;&gt;Comment</title>
<path fill="none" stroke="#3f9c20" d="M141.144,-192.002C141.144,-179.187 141.144,-165.894 141.144,-153.031"/>
<ellipse fill="none" stroke="#3f9c20" cx="141.144" cy="-196.414" rx="4" ry="4"/>
<polygon fill="#3f9c20" stroke="#3f9c20" points="141.144,-152.826 145.644,-142.826 141.144,-147.826 141.144,-142.826 141.144,-142.826 141.144,-142.826 141.144,-147.826 136.644,-142.826 141.144,-152.826 141.144,-152.826"/>
</g>
<!-- PopulairSport -->
<g id="node6" class="node"><title>PopulairSport</title>
<path fill="none" stroke="black" d="M1566.64,-534.5C1566.64,-534.5 1675.65,-534.5 1675.65,-534.5 1681.65,-534.5 1687.65,-540.5 1687.65,-546.5 1687.65,-546.5 1687.65,-622.5 1687.65,-622.5 1687.65,-628.5 1681.65,-634.5 1675.65,-634.5 1675.65,-634.5 1566.64,-634.5 1566.64,-634.5 1560.64,-634.5 1554.64,-628.5 1554.64,-622.5 1554.64,-622.5 1554.64,-546.5 1554.64,-546.5 1554.64,-540.5 1560.64,-534.5 1566.64,-534.5"/>
<text text-anchor="middle" x="1621.14" y="-619.3" font-family="Times,serif" font-size="14.00">PopulairSport</text>
<polyline fill="none" stroke="black" points="1554.64,-612.5 1687.65,-612.5 "/>
<text text-anchor="start" x="1562.64" y="-597.3" font-family="Times,serif" font-size="14.00">id :integer</text>
<text text-anchor="start" x="1562.64" y="-583.3" font-family="Times,serif" font-size="14.00">name :string</text>
<text text-anchor="start" x="1562.64" y="-569.3" font-family="Times,serif" font-size="14.00">kcal :integer</text>
<text text-anchor="start" x="1562.64" y="-555.3" font-family="Times,serif" font-size="14.00">created_at :datetime</text>
<text text-anchor="start" x="1562.64" y="-541.3" font-family="Times,serif" font-size="14.00">updated_at :datetime</text>
</g>
<!-- Sport -->
<g id="node8" class="node"><title>Sport</title>
<path fill="none" stroke="black" d="M1655.24,-193.5C1655.24,-193.5 1793.05,-193.5 1793.05,-193.5 1799.05,-193.5 1805.05,-199.5 1805.05,-205.5 1805.05,-205.5 1805.05,-337.5 1805.05,-337.5 1805.05,-343.5 1799.05,-349.5 1793.05,-349.5 1793.05,-349.5 1655.24,-349.5 1655.24,-349.5 1649.24,-349.5 1643.24,-343.5 1643.24,-337.5 1643.24,-337.5 1643.24,-205.5 1643.24,-205.5 1643.24,-199.5 1649.24,-193.5 1655.24,-193.5"/>
<text text-anchor="middle" x="1724.14" y="-334.3" font-family="Times,serif" font-size="14.00">Sport</text>
<polyline fill="none" stroke="black" points="1643.24,-327.5 1805.05,-327.5 "/>
<text text-anchor="start" x="1651.24" y="-312.3" font-family="Times,serif" font-size="14.00">id :integer</text>
<text text-anchor="start" x="1651.24" y="-298.3" font-family="Times,serif" font-size="14.00">user_id :integer</text>
<text text-anchor="start" x="1651.24" y="-284.3" font-family="Times,serif" font-size="14.00">populair_sport_id :integer</text>
<text text-anchor="start" x="1651.24" y="-270.3" font-family="Times,serif" font-size="14.00">date :date</text>
<text text-anchor="start" x="1651.24" y="-256.3" font-family="Times,serif" font-size="14.00">duration :integer</text>
<text text-anchor="start" x="1651.24" y="-242.3" font-family="Times,serif" font-size="14.00">distance :integer</text>
<text text-anchor="start" x="1651.24" y="-228.3" font-family="Times,serif" font-size="14.00">created_at :datetime</text>
<text text-anchor="start" x="1651.24" y="-214.3" font-family="Times,serif" font-size="14.00">updated_at :datetime</text>
<text text-anchor="start" x="1651.24" y="-200.3" font-family="Times,serif" font-size="14.00">burned_calories :integer</text>
</g>
<!-- PopulairSport&#45;&gt;Sport -->
<g id="edge6" class="edge"><title>PopulairSport&#45;&gt;Sport</title>
<path fill="none" stroke="#f84bcb" d="M1640.03,-526.46C1655.5,-479.754 1677.64,-412.917 1695.32,-359.532"/>
<ellipse fill="none" stroke="#f84bcb" cx="1638.72" cy="-530.424" rx="4.00001" ry="4.00001"/>
<polygon fill="#f84bcb" stroke="#f84bcb" points="1695.42,-359.221 1702.84,-351.143 1696.99,-354.475 1698.57,-349.728 1698.57,-349.728 1698.57,-349.728 1696.99,-354.475 1694.29,-348.314 1695.42,-359.221 1695.42,-359.221"/>
</g>
<!-- Smoke -->
<g id="node7" class="node"><title>Smoke</title>
<path fill="none" stroke="black" d="M832.639,-214.5C832.639,-214.5 941.649,-214.5 941.649,-214.5 947.649,-214.5 953.649,-220.5 953.649,-226.5 953.649,-226.5 953.649,-316.5 953.649,-316.5 953.649,-322.5 947.649,-328.5 941.649,-328.5 941.649,-328.5 832.639,-328.5 832.639,-328.5 826.639,-328.5 820.639,-322.5 820.639,-316.5 820.639,-316.5 820.639,-226.5 820.639,-226.5 820.639,-220.5 826.639,-214.5 832.639,-214.5"/>
<text text-anchor="middle" x="887.144" y="-313.3" font-family="Times,serif" font-size="14.00">Smoke</text>
<polyline fill="none" stroke="black" points="820.639,-306.5 953.649,-306.5 "/>
<text text-anchor="start" x="828.639" y="-291.3" font-family="Times,serif" font-size="14.00">id :integer</text>
<text text-anchor="start" x="828.639" y="-277.3" font-family="Times,serif" font-size="14.00">user_id :integer</text>
<text text-anchor="start" x="828.639" y="-263.3" font-family="Times,serif" font-size="14.00">date :date</text>
<text text-anchor="start" x="828.639" y="-249.3" font-family="Times,serif" font-size="14.00">counted :integer</text>
<text text-anchor="start" x="828.639" y="-235.3" font-family="Times,serif" font-size="14.00">created_at :datetime</text>
<text text-anchor="start" x="828.639" y="-221.3" font-family="Times,serif" font-size="14.00">updated_at :datetime</text>
</g>
<!-- PublicActivity::Activity -->
<g id="node16" class="node"><title>PublicActivity::Activity</title>
<ellipse fill="none" stroke="black" cx="1003.14" cy="-71.5" rx="95.6759" ry="18"/>
<text text-anchor="middle" x="1003.14" y="-67.3" font-family="Times,serif" font-size="14.00">PublicActivity::Activity</text>
</g>
<!-- Sport&#45;&gt;PublicActivity::Activity -->
<g id="edge9" class="edge"><title>Sport&#45;&gt;PublicActivity::Activity</title>
<path fill="none" stroke="#bf7014" d="M1635.81,-193.82C1635.26,-193.542 1634.7,-193.269 1634.14,-193 1461.55,-109.67 1236.34,-83.9161 1106.92,-75.9889"/>
<ellipse fill="none" stroke="#bf7014" cx="1639.46" cy="-195.768" rx="4.00002" ry="4.00002"/>
<polygon fill="#bf7014" stroke="#bf7014" points="1106.6,-75.9704 1096.89,-70.8911 1101.61,-75.6768 1096.62,-75.3833 1096.62,-75.3833 1096.62,-75.3833 1101.61,-75.6768 1096.36,-79.8756 1106.6,-75.9704 1106.6,-75.9704"/>
<text text-anchor="middle" x="1611.41" y="-163.8" font-family="Times,serif" font-size="14.00">activities</text>
</g>
<!-- User -->
<g id="node9" class="node"><title>User</title>
<path fill="none" stroke="black" d="M667.866,-387.5C667.866,-387.5 848.422,-387.5 848.422,-387.5 854.422,-387.5 860.422,-393.5 860.422,-399.5 860.422,-399.5 860.422,-769.5 860.422,-769.5 860.422,-775.5 854.422,-781.5 848.422,-781.5 848.422,-781.5 667.866,-781.5 667.866,-781.5 661.866,-781.5 655.866,-775.5 655.866,-769.5 655.866,-769.5 655.866,-399.5 655.866,-399.5 655.866,-393.5 661.866,-387.5 667.866,-387.5"/>
<text text-anchor="middle" x="758.144" y="-766.3" font-family="Times,serif" font-size="14.00">User</text>
<polyline fill="none" stroke="black" points="655.866,-759.5 860.422,-759.5 "/>
<text text-anchor="start" x="663.866" y="-744.3" font-family="Times,serif" font-size="14.00">id :integer</text>
<text text-anchor="start" x="663.866" y="-730.3" font-family="Times,serif" font-size="14.00">user_id :integer</text>
<text text-anchor="start" x="663.866" y="-716.3" font-family="Times,serif" font-size="14.00">created_at :datetime</text>
<text text-anchor="start" x="663.866" y="-702.3" font-family="Times,serif" font-size="14.00">updated_at :datetime</text>
<text text-anchor="start" x="663.866" y="-688.3" font-family="Times,serif" font-size="14.00">email :string</text>
<text text-anchor="start" x="663.866" y="-674.3" font-family="Times,serif" font-size="14.00">encrypted_password :string</text>
<text text-anchor="start" x="663.866" y="-660.3" font-family="Times,serif" font-size="14.00">reset_password_token :string</text>
<text text-anchor="start" x="663.866" y="-646.3" font-family="Times,serif" font-size="14.00">reset_password_sent_at :datetime</text>
<text text-anchor="start" x="663.866" y="-632.3" font-family="Times,serif" font-size="14.00">remember_created_at :datetime</text>
<text text-anchor="start" x="663.866" y="-618.3" font-family="Times,serif" font-size="14.00">sign_in_count :integer</text>
<text text-anchor="start" x="663.866" y="-604.3" font-family="Times,serif" font-size="14.00">current_sign_in_at :datetime</text>
<text text-anchor="start" x="663.866" y="-590.3" font-family="Times,serif" font-size="14.00">last_sign_in_at :datetime</text>
<text text-anchor="start" x="663.866" y="-576.3" font-family="Times,serif" font-size="14.00">current_sign_in_ip :string</text>
<text text-anchor="start" x="663.866" y="-562.3" font-family="Times,serif" font-size="14.00">last_sign_in_ip :string</text>
<text text-anchor="start" x="663.866" y="-548.3" font-family="Times,serif" font-size="14.00">provider :string</text>
<text text-anchor="start" x="663.866" y="-534.3" font-family="Times,serif" font-size="14.00">uid :string</text>
<text text-anchor="start" x="663.866" y="-520.3" font-family="Times,serif" font-size="14.00">name :string</text>
<text text-anchor="start" x="663.866" y="-506.3" font-family="Times,serif" font-size="14.00">avatar_file_name :string</text>
<text text-anchor="start" x="663.866" y="-492.3" font-family="Times,serif" font-size="14.00">avatar_content_type :string</text>
<text text-anchor="start" x="663.866" y="-478.3" font-family="Times,serif" font-size="14.00">avatar_file_size :integer</text>
<text text-anchor="start" x="663.866" y="-464.3" font-family="Times,serif" font-size="14.00">avatar_updated_at :datetime</text>
<text text-anchor="start" x="663.866" y="-450.3" font-family="Times,serif" font-size="14.00">karma :integer</text>
<text text-anchor="start" x="663.866" y="-436.3" font-family="Times,serif" font-size="14.00">oauth_token :string</text>
<text text-anchor="start" x="663.866" y="-422.3" font-family="Times,serif" font-size="14.00">oauth_expires_at :datetime</text>
<text text-anchor="start" x="663.866" y="-408.3" font-family="Times,serif" font-size="14.00">slug :string</text>
<text text-anchor="start" x="663.866" y="-394.3" font-family="Times,serif" font-size="14.00">user_hash :string</text>
</g>
<!-- User&#45;&gt;Achievement -->
<g id="edge21" class="edge"><title>User&#45;&gt;Achievement</title>
<path fill="none" stroke="#08f4ea" d="M649.698,-473.293C615.178,-439.03 576.506,-401.479 540.144,-368 531.1,-359.674 528.122,-358.396 519.144,-350 511.918,-343.242 504.459,-335.997 497.167,-328.748"/>
<ellipse fill="none" stroke="#08f4ea" cx="652.809" cy="-476.385" rx="4.00002" ry="4.00002"/>
<polygon fill="#08f4ea" stroke="#08f4ea" points="497.012,-328.593 493.13,-318.337 493.479,-325.054 489.946,-321.516 489.946,-321.516 489.946,-321.516 493.479,-325.054 486.761,-324.696 497.012,-328.593 497.012,-328.593"/>
</g>
<!-- User&#45;&gt;Comment -->
<g id="edge20" class="edge"><title>User&#45;&gt;Comment</title>
<path fill="none" stroke="#774d37" d="M730.932,-379.118C717.551,-292.361 701.298,-207.693 687.144,-193 625.301,-128.803 371.186,-94.699 232.498,-80.5504"/>
<ellipse fill="none" stroke="#774d37" cx="731.571" cy="-383.294" rx="4.00001" ry="4.00001"/>
<polygon fill="#774d37" stroke="#774d37" points="232.257,-80.5263 222.758,-75.0481 227.282,-80.0259 222.307,-79.5255 222.307,-79.5255 222.307,-79.5255 227.282,-80.0259 221.857,-84.0029 232.257,-80.5263 232.257,-80.5263"/>
</g>
<!-- User&#45;&gt;Friendship -->
<g id="edge22" class="edge"><title>User&#45;&gt;Friendship</title>
<path fill="none" stroke="#2c0893" d="M648.479,-516.577C577.635,-473.616 483.299,-416.914 399.144,-368 385.036,-359.8 380.064,-359.967 367.144,-350 363.982,-347.561 360.826,-344.99 357.698,-342.327"/>
<ellipse fill="none" stroke="#2c0893" cx="652.274" cy="-518.879" rx="4.00002" ry="4.00002"/>
<polygon fill="#2c0893" stroke="#2c0893" points="357.494,-342.147 352.964,-332.161 353.742,-338.842 349.989,-335.538 349.989,-335.538 349.989,-335.538 353.742,-338.842 347.015,-338.915 357.494,-342.147 357.494,-342.147"/>
</g>
<!-- User&#45;&gt;Message -->
<g id="edge19" class="edge"><title>User&#45;&gt;Message</title>
<path fill="none" stroke="#8ce26b" d="M647.885,-550.338C533.556,-512.785 352.755,-444.323 216.144,-350 215.508,-349.561 214.874,-349.116 214.24,-348.666"/>
<ellipse fill="none" stroke="#8ce26b" cx="651.857" cy="-551.635" rx="4.00001" ry="4.00001"/>
<polygon fill="#8ce26b" stroke="#8ce26b" points="214.066,-348.535 208.79,-338.922 210.074,-345.525 206.081,-342.515 206.081,-342.515 206.081,-342.515 210.074,-345.525 203.372,-346.108 214.066,-348.535 214.066,-348.535"/>
</g>
<!-- User&#45;&gt;Smoke -->
<g id="edge17" class="edge"><title>User&#45;&gt;Smoke</title>
<path fill="none" stroke="#6ee9e5" d="M842.551,-380.006C848.664,-365.269 854.512,-351.17 859.845,-338.313"/>
<ellipse fill="none" stroke="#6ee9e5" cx="841.008" cy="-383.727" rx="4.00002" ry="4.00002"/>
<polygon fill="#6ee9e5" stroke="#6ee9e5" points="859.987,-337.971 867.975,-330.458 861.903,-333.352 863.819,-328.734 863.819,-328.734 863.819,-328.734 861.903,-333.352 859.662,-327.01 859.987,-337.971 859.987,-337.971"/>
</g>
<!-- User&#45;&gt;Sport -->
<g id="edge18" class="edge"><title>User&#45;&gt;Sport</title>
<path fill="none" stroke="#cf84f7" d="M868.865,-556.928C1088.91,-503.694 1565.96,-385.995 1634.14,-350 1634.24,-349.95 1634.33,-349.901 1634.43,-349.851"/>
<ellipse fill="none" stroke="#cf84f7" cx="864.714" cy="-557.932" rx="4.00001" ry="4.00001"/>
<polygon fill="#cf84f7" stroke="#cf84f7" points="1634.43,-349.851 1645.34,-348.816 1638.77,-347.378 1643.12,-344.905 1643.12,-344.905 1643.12,-344.905 1638.77,-347.378 1640.89,-340.994 1634.43,-349.851 1634.43,-349.851"/>
</g>
<!-- User&#45;&gt;User -->
<g id="edge23" class="edge"><title>User&#45;&gt;User</title>
<path fill="none" stroke="#7dcbdb" d="M868.878,-611.429C874.866,-604.847 878.422,-595.871 878.422,-584.5 878.422,-573.129 874.866,-564.153 868.878,-557.571"/>
<polygon fill="#7dcbdb" stroke="#7dcbdb" points="868.531,-611.714 857.945,-614.577 864.665,-614.885 860.799,-618.056 860.799,-618.056 860.799,-618.056 864.665,-614.885 863.653,-621.536 868.531,-611.714 868.531,-611.714"/>
<polygon fill="#7dcbdb" stroke="#7dcbdb" points="868.531,-557.286 863.653,-547.464 864.665,-554.115 860.799,-550.944 860.799,-550.944 860.799,-550.944 864.665,-554.115 857.945,-554.423 868.531,-557.286 868.531,-557.286"/>
<text text-anchor="middle" x="897.86" y="-580.3" font-family="Times,serif" font-size="14.00">friends</text>
</g>
<!-- UserDetail -->
<g id="node10" class="node"><title>UserDetail</title>
<path fill="none" stroke="black" d="M1334.65,-207.5C1334.65,-207.5 1449.64,-207.5 1449.64,-207.5 1455.64,-207.5 1461.64,-213.5 1461.64,-219.5 1461.64,-219.5 1461.64,-323.5 1461.64,-323.5 1461.64,-329.5 1455.64,-335.5 1449.64,-335.5 1449.64,-335.5 1334.65,-335.5 1334.65,-335.5 1328.65,-335.5 1322.65,-329.5 1322.65,-323.5 1322.65,-323.5 1322.65,-219.5 1322.65,-219.5 1322.65,-213.5 1328.65,-207.5 1334.65,-207.5"/>
<text text-anchor="middle" x="1392.14" y="-320.3" font-family="Times,serif" font-size="14.00">UserDetail</text>
<polyline fill="none" stroke="black" points="1322.65,-313.5 1461.64,-313.5 "/>
<text text-anchor="start" x="1330.65" y="-298.3" font-family="Times,serif" font-size="14.00">id :integer</text>
<text text-anchor="start" x="1330.65" y="-284.3" font-family="Times,serif" font-size="14.00">user_id :integer</text>
<text text-anchor="start" x="1330.65" y="-270.3" font-family="Times,serif" font-size="14.00">height :integer</text>
<text text-anchor="start" x="1330.65" y="-256.3" font-family="Times,serif" font-size="14.00">weight :integer</text>
<text text-anchor="start" x="1330.65" y="-242.3" font-family="Times,serif" font-size="14.00">target_weight :integer</text>
<text text-anchor="start" x="1330.65" y="-228.3" font-family="Times,serif" font-size="14.00">created_at :datetime</text>
<text text-anchor="start" x="1330.65" y="-214.3" font-family="Times,serif" font-size="14.00">updated_at :datetime</text>
</g>
<!-- User&#45;&gt;UserDetail -->
<g id="edge13" class="edge"><title>User&#45;&gt;UserDetail</title>
<path fill="none" stroke="#ef1c6c" d="M868.543,-551.114C985.41,-513.742 1172.22,-445.002 1314.14,-350 1318.31,-347.213 1322.44,-344.182 1326.5,-340.987"/>
<ellipse fill="none" stroke="#ef1c6c" cx="864.412" cy="-552.428" rx="4.00001" ry="4.00001"/>
<ellipse fill="#ef1c6c" stroke="#ef1c6c" cx="1329.71" cy="-338.369" rx="4.00002" ry="4.00002"/>
</g>
<!-- UserNotice -->
<g id="node11" class="node"><title>UserNotice</title>
<path fill="none" stroke="black" d="M1491.41,-207.5C1491.41,-207.5 1612.88,-207.5 1612.88,-207.5 1618.88,-207.5 1624.88,-213.5 1624.88,-219.5 1624.88,-219.5 1624.88,-323.5 1624.88,-323.5 1624.88,-329.5 1618.88,-335.5 1612.88,-335.5 1612.88,-335.5 1491.41,-335.5 1491.41,-335.5 1485.41,-335.5 1479.41,-329.5 1479.41,-323.5 1479.41,-323.5 1479.41,-219.5 1479.41,-219.5 1479.41,-213.5 1485.41,-207.5 1491.41,-207.5"/>
<text text-anchor="middle" x="1552.14" y="-320.3" font-family="Times,serif" font-size="14.00">UserNotice</text>
<polyline fill="none" stroke="black" points="1479.41,-313.5 1624.88,-313.5 "/>
<text text-anchor="start" x="1487.41" y="-298.3" font-family="Times,serif" font-size="14.00">id :integer</text>
<text text-anchor="start" x="1487.41" y="-284.3" font-family="Times,serif" font-size="14.00">user_id :integer</text>
<text text-anchor="start" x="1487.41" y="-270.3" font-family="Times,serif" font-size="14.00">mail :boolean</text>
<text text-anchor="start" x="1487.41" y="-256.3" font-family="Times,serif" font-size="14.00">daily_updates :boolean</text>
<text text-anchor="start" x="1487.41" y="-242.3" font-family="Times,serif" font-size="14.00">push_notice :boolean</text>
<text text-anchor="start" x="1487.41" y="-228.3" font-family="Times,serif" font-size="14.00">created_at :datetime</text>
<text text-anchor="start" x="1487.41" y="-214.3" font-family="Times,serif" font-size="14.00">updated_at :datetime</text>
</g>
<!-- User&#45;&gt;UserNotice -->
<g id="edge14" class="edge"><title>User&#45;&gt;UserNotice</title>
<path fill="none" stroke="#fb7236" d="M868.579,-563.05C1014.18,-532.681 1274.74,-466.348 1470.14,-350 1474.89,-347.172 1479.59,-344.026 1484.19,-340.666"/>
<ellipse fill="none" stroke="#fb7236" cx="864.363" cy="-563.923" rx="4.00001" ry="4.00001"/>
<ellipse fill="#fb7236" stroke="#fb7236" cx="1487.67" cy="-338.022" rx="4.00002" ry="4.00002"/>
</g>
<!-- UserPreference -->
<g id="node12" class="node"><title>UserPreference</title>
<path fill="none" stroke="black" d="M540.08,-200.5C540.08,-200.5 666.208,-200.5 666.208,-200.5 672.208,-200.5 678.208,-206.5 678.208,-212.5 678.208,-212.5 678.208,-330.5 678.208,-330.5 678.208,-336.5 672.208,-342.5 666.208,-342.5 666.208,-342.5 540.08,-342.5 540.08,-342.5 534.08,-342.5 528.08,-336.5 528.08,-330.5 528.08,-330.5 528.08,-212.5 528.08,-212.5 528.08,-206.5 534.08,-200.5 540.08,-200.5"/>
<text text-anchor="middle" x="603.144" y="-327.3" font-family="Times,serif" font-size="14.00">UserPreference</text>
<polyline fill="none" stroke="black" points="528.08,-320.5 678.208,-320.5 "/>
<text text-anchor="start" x="536.08" y="-305.3" font-family="Times,serif" font-size="14.00">id :integer</text>
<text text-anchor="start" x="536.08" y="-291.3" font-family="Times,serif" font-size="14.00">user_id :integer</text>
<text text-anchor="start" x="536.08" y="-277.3" font-family="Times,serif" font-size="14.00">smokes :boolean</text>
<text text-anchor="start" x="536.08" y="-263.3" font-family="Times,serif" font-size="14.00">sports :boolean</text>
<text text-anchor="start" x="536.08" y="-249.3" font-family="Times,serif" font-size="14.00">created_at :datetime</text>
<text text-anchor="start" x="536.08" y="-235.3" font-family="Times,serif" font-size="14.00">updated_at :datetime</text>
<text text-anchor="start" x="536.08" y="-221.3" font-family="Times,serif" font-size="14.00">public_profile :boolean</text>
<text text-anchor="start" x="536.08" y="-207.3" font-family="Times,serif" font-size="14.00">private_profile :boolean</text>
</g>
<!-- User&#45;&gt;UserPreference -->
<g id="edge12" class="edge"><title>User&#45;&gt;UserPreference</title>
<path fill="none" stroke="#0f0338" d="M656.759,-380.076C651.544,-369.612 646.488,-359.468 641.701,-349.862"/>
<ellipse fill="none" stroke="#0f0338" cx="658.636" cy="-383.841" rx="4.00002" ry="4.00002"/>
<ellipse fill="#0f0338" stroke="#0f0338" cx="639.878" cy="-346.205" rx="4.00002" ry="4.00002"/>
</g>
<!-- UserProfile -->
<g id="node13" class="node"><title>UserProfile</title>
<path fill="none" stroke="black" d="M983.639,-228.5C983.639,-228.5 1092.65,-228.5 1092.65,-228.5 1098.65,-228.5 1104.65,-234.5 1104.65,-240.5 1104.65,-240.5 1104.65,-302.5 1104.65,-302.5 1104.65,-308.5 1098.65,-314.5 1092.65,-314.5 1092.65,-314.5 983.639,-314.5 983.639,-314.5 977.639,-314.5 971.639,-308.5 971.639,-302.5 971.639,-302.5 971.639,-240.5 971.639,-240.5 971.639,-234.5 977.639,-228.5 983.639,-228.5"/>
<text text-anchor="middle" x="1038.14" y="-299.3" font-family="Times,serif" font-size="14.00">UserProfile</text>
<polyline fill="none" stroke="black" points="971.639,-292.5 1104.65,-292.5 "/>
<text text-anchor="start" x="979.639" y="-277.3" font-family="Times,serif" font-size="14.00">id :integer</text>
<text text-anchor="start" x="979.639" y="-263.3" font-family="Times,serif" font-size="14.00">created_at :datetime</text>
<text text-anchor="start" x="979.639" y="-249.3" font-family="Times,serif" font-size="14.00">updated_at :datetime</text>
<text text-anchor="start" x="979.639" y="-235.3" font-family="Times,serif" font-size="14.00">user_id :integer</text>
</g>
<!-- User&#45;&gt;UserProfile -->
<g id="edge16" class="edge"><title>User&#45;&gt;UserProfile</title>
<path fill="none" stroke="#4afc53" d="M866.245,-463.431C911.016,-413.703 960.384,-358.869 994.684,-320.772"/>
<ellipse fill="none" stroke="#4afc53" cx="863.492" cy="-466.488" rx="4.00002" ry="4.00002"/>
<ellipse fill="#4afc53" stroke="#4afc53" cx="997.38" cy="-317.777" rx="4.00002" ry="4.00002"/>
</g>
<!-- UserSmokeAddiction -->
<g id="node14" class="node"><title>UserSmokeAddiction</title>
<path fill="none" stroke="black" d="M1135.15,-221.5C1135.15,-221.5 1293.14,-221.5 1293.14,-221.5 1299.14,-221.5 1305.14,-227.5 1305.14,-233.5 1305.14,-233.5 1305.14,-309.5 1305.14,-309.5 1305.14,-315.5 1299.14,-321.5 1293.14,-321.5 1293.14,-321.5 1135.15,-321.5 1135.15,-321.5 1129.15,-321.5 1123.15,-315.5 1123.15,-309.5 1123.15,-309.5 1123.15,-233.5 1123.15,-233.5 1123.15,-227.5 1129.15,-221.5 1135.15,-221.5"/>
<text text-anchor="middle" x="1214.14" y="-306.3" font-family="Times,serif" font-size="14.00">UserSmokeAddiction</text>
<polyline fill="none" stroke="black" points="1123.15,-299.5 1305.14,-299.5 "/>
<text text-anchor="start" x="1131.15" y="-284.3" font-family="Times,serif" font-size="14.00">id :integer</text>
<text text-anchor="start" x="1131.15" y="-270.3" font-family="Times,serif" font-size="14.00">user_id :integer</text>
<text text-anchor="start" x="1131.15" y="-256.3" font-family="Times,serif" font-size="14.00">avarage_smokes_day :integer</text>
<text text-anchor="start" x="1131.15" y="-242.3" font-family="Times,serif" font-size="14.00">created_at :datetime</text>
<text text-anchor="start" x="1131.15" y="-228.3" font-family="Times,serif" font-size="14.00">updated_at :datetime</text>
</g>
<!-- User&#45;&gt;UserSmokeAddiction -->
<g id="edge15" class="edge"><title>User&#45;&gt;UserSmokeAddiction</title>
<path fill="none" stroke="#2081e0" d="M867.285,-515.068C938.51,-469.642 1032.99,-407.927 1114.14,-350 1124.51,-342.603 1135.3,-334.582 1145.81,-326.599"/>
<ellipse fill="none" stroke="#2081e0" cx="863.84" cy="-517.263" rx="4.00002" ry="4.00002"/>
<ellipse fill="#2081e0" stroke="#2081e0" cx="1149.12" cy="-324.067" rx="4.00002" ry="4.00002"/>
</g>
<!-- User&#45;&gt;PublicActivity::Activity -->
<g id="edge11" class="edge"><title>User&#45;&gt;PublicActivity::Activity</title>
<path fill="none" stroke="#63cf25" d="M740.394,-378.945C737.611,-301.672 740.799,-224.734 760.606,-193 797.26,-134.275 871.977,-103.241 928.851,-87.4703"/>
<ellipse fill="none" stroke="#63cf25" cx="740.567" cy="-383.394" rx="4" ry="4"/>
<polygon fill="#63cf25" stroke="#63cf25" points="928.87,-87.4651 939.693,-89.2317 933.701,-86.1746 938.532,-84.8841 938.532,-84.8841 938.532,-84.8841 933.701,-86.1746 937.37,-80.5366 928.87,-87.4651 928.87,-87.4651"/>
<text text-anchor="middle" x="785.413" y="-267.3" font-family="Times,serif" font-size="14.00">activities</text>
</g>
<!-- ActiveRecord::Base -->
<g id="node15" class="node"><title>ActiveRecord::Base</title>
<ellipse fill="none" stroke="black" cx="944.144" cy="-855.5" rx="81.1422" ry="18"/>
<text text-anchor="middle" x="944.144" y="-851.3" font-family="Times,serif" font-size="14.00">ActiveRecord::Base</text>
</g>
<!-- ActiveRecord::Base&#45;&gt;Achievement -->
<g id="edge1" class="edge"><title>ActiveRecord::Base&#45;&gt;Achievement</title>
<path fill="none" stroke="black" d="M911.106,-838.881C894.396,-831.654 873.582,-823.656 854.144,-819 790.535,-803.765 609.429,-827.191 562.144,-782 432.778,-658.363 432.045,-423.296 438.579,-321.512"/>
</g>
<!-- ActiveRecord::Base&#45;&gt;Comment -->
<g id="edge2" class="edge"><title>ActiveRecord::Base&#45;&gt;Comment</title>
<path fill="none" stroke="black" d="M912.054,-838.76C895.233,-831.311 874.039,-823.153 854.144,-819 775.946,-802.675 194.723,-836.312 136.144,-782 -57.2102,-602.73 -8.06455,-446.306 65.1439,-193 70.157,-175.654 78.4909,-158.403 87.8441,-142.602"/>
</g>
<!-- ActiveRecord::Base&#45;&gt;Friendship -->
<g id="edge3" class="edge"><title>ActiveRecord::Base&#45;&gt;Friendship</title>
<path fill="none" stroke="black" d="M911.575,-838.855C894.807,-831.527 873.803,-823.449 854.144,-819 762.544,-798.271 504.441,-843.131 433.144,-782 301.458,-669.091 287.361,-445.192 289.002,-335.728"/>
</g>
<!-- ActiveRecord::Base&#45;&gt;Message -->
<g id="edge5" class="edge"><title>ActiveRecord::Base&#45;&gt;Message</title>
<path fill="none" stroke="black" d="M912.036,-838.845C895.211,-831.418 874.017,-823.255 854.144,-819 792.301,-805.759 334.519,-822.74 286.144,-782 155.831,-672.253 138.187,-454.542 138.388,-342.588"/>
</g>
<!-- ActiveRecord::Base&#45;&gt;PopulairSport -->
<g id="edge7" class="edge"><title>ActiveRecord::Base&#45;&gt;PopulairSport</title>
<path fill="none" stroke="black" d="M1023.86,-851.795C1175.08,-846.007 1492.12,-830.487 1532.14,-801 1585.26,-761.866 1606.82,-685.2 1615.47,-634.663"/>
</g>
<!-- ActiveRecord::Base&#45;&gt;Smoke -->
<g id="edge8" class="edge"><title>ActiveRecord::Base&#45;&gt;Smoke</title>
<path fill="none" stroke="black" d="M945.159,-837.329C948.439,-775.743 956.793,-560.405 925.144,-387 921.609,-367.632 915.547,-347.05 909.289,-328.756"/>
</g>
<!-- ActiveRecord::Base&#45;&gt;Sport -->
<g id="edge10" class="edge"><title>ActiveRecord::Base&#45;&gt;Sport</title>
<path fill="none" stroke="black" d="M1024.49,-852.665C1209.25,-847.626 1651.97,-830.56 1697.14,-782 1805.74,-665.26 1774.97,-460.797 1747.13,-349.685"/>
</g>
<!-- ActiveRecord::Base&#45;&gt;User -->
<g id="edge24" class="edge"><title>ActiveRecord::Base&#45;&gt;User</title>
<path fill="none" stroke="black" d="M932.509,-837.673C917.438,-815.876 889.637,-775.67 860.594,-733.667"/>
</g>
<!-- ActiveRecord::Base&#45;&gt;UserDetail -->
<g id="edge25" class="edge"><title>ActiveRecord::Base&#45;&gt;UserDetail</title>
<path fill="none" stroke="black" d="M994.809,-841.42C1029.91,-830.293 1075.94,-811.363 1108.14,-782 1248.08,-654.412 1335.12,-441.361 1371.87,-335.782"/>
</g>
<!-- ActiveRecord::Base&#45;&gt;UserNotice -->
<g id="edge26" class="edge"><title>ActiveRecord::Base&#45;&gt;UserNotice</title>
<path fill="none" stroke="black" d="M1023.8,-851.813C1088.67,-845.992 1179.73,-829.171 1244.14,-782 1401.54,-666.732 1494.28,-444.466 1532.13,-335.644"/>
</g>
<!-- ActiveRecord::Base&#45;&gt;UserPreference -->
<g id="edge27" class="edge"><title>ActiveRecord::Base&#45;&gt;UserPreference</title>
<path fill="none" stroke="black" d="M909.653,-839.03C893.125,-832.102 872.889,-824.315 854.144,-819 764.23,-793.506 710.164,-851.014 647.144,-782 537.136,-661.529 562.381,-451.506 585.393,-342.554"/>
</g>
<!-- ActiveRecord::Base&#45;&gt;UserProfile -->
<g id="edge28" class="edge"><title>ActiveRecord::Base&#45;&gt;UserProfile</title>
<path fill="none" stroke="black" d="M949.97,-837.318C953.328,-826.907 957.411,-813.303 960.144,-801 999.862,-622.182 1024.72,-404.718 1034.01,-314.667"/>
</g>
<!-- ActiveRecord::Base&#45;&gt;UserSmokeAddiction -->
<g id="edge29" class="edge"><title>ActiveRecord::Base&#45;&gt;UserSmokeAddiction</title>
<path fill="none" stroke="black" d="M962.319,-837.736C976.53,-823.871 996.013,-803.098 1009.14,-782 1106.25,-625.972 1173.35,-416.063 1200.57,-321.863"/>
</g>
</g>
</svg>
